PathFileType	4	(X/Y/Z)	Patient4_TMGait_0pt8_01_left_08.trc.trc
DataRate	CameraRate	NumFrames	NumMarkers	Units	OrigDataRate	OrigDataStartFrame	OrigNumFrames
89.171974522293	89.171974522293	4	33	mm	89.171974522293	124	       141
Frame#	Time	Sacral			L.Shoulder			Chest			R.Shoulder			Neck			R.ASIS			L.ASIS			R.Thigh.Superior			R.Thigh.Lateral			R.Thigh.Inferior			R.Patella			L.Thigh.Superior			L.Thigh.Lateral			L.Thigh.Inferior			L.Patella			L.Shank.Superior			L.Shank.Lateral			L.Shank.Inferior			R.Shank.Superior			R.Shank.Lateral			R.Shank.Inferior			R.Heel			R.Midfoot.Superior			R.Midfoot.Lateral			R.Toe			L.Heel			L.Midfoot.Lateral			L.Midfoot.Superior			L.Toe			L.Elbow			L.Wrist			R.Elbow			R.Wrist			
		X1	Y1	Z1	X2	Y2	Z2	X3	Y3	Z3	X4	Y4	Z4	X5	Y5	Z5	X6	Y6	Z6	X7	Y7	Z7	X8	Y8	Z8	X9	Y9	Z9	X10	Y10	Z10	X11	Y11	Z11	X12	Y12	Z12	X13	Y13	Z13	X14	Y14	Z14	X15	Y15	Z15	X16	Y16	Z16	X17	Y17	Z17	X18	Y18	Z18	X19	Y19	Z19	X20	Y20	Z20	X21	Y21	Z21	X22	Y22	Z22	X23	Y23	Z23	X24	Y24	Z24	X25	Y25	Z25	X26	Y26	Z26	X27	Y27	Z27	X28	Y28	Z28	X29	Y29	Z29	X30	Y30	Z30	X31	Y31	Z31	X32	Y32	Z32	X33	Y33	Z33	

124	9.539357142857	857.895714640332	996.218837837654	510.062697763001	1016.141802877422	1417.404196329663	306.075754976156	1139.297541969004	1344.941736053585	451.603028689375	1083.761527986210	1425.185144347670	633.156032821519	1024.284820245564	1478.029281464499	462.527298293616	1089.830643644047	924.606383172476	605.567266333286	1052.238683364110	940.928376417033	331.521953024472	1075.344822672331	710.717738578057	580.022491785885	966.277036027701	622.859277063121	645.172062362695	1017.822762706164	554.392020017630	562.532741218116	993.421899220250	469.197958399426	566.926421432337	1129.786025186385	763.845265445774	364.506040652990	1079.036187036259	632.824168954635	289.262483940913	1186.738356996025	578.641696191775	346.419246614434	1213.106832286753	514.533191842156	343.744724666234	1200.525657464722	441.463129965443	334.196943081814	1138.220881768887	306.791748500364	293.266939329576	1235.015996800438	215.089722026040	344.237141768501	949.355722580946	388.457379065637	575.132060929149	863.052873150734	298.201867744227	638.548094070905	884.702418152768	198.431579564907	574.064273111664	728.726405979140	44.425493530642	542.710339222235	899.589832098456	96.091334656479	581.699997499023	809.744285203246	37.020345505826	619.061291120162	1018.296457495359	41.475843185588	615.081556866908	1164.348465520389	37.928177130788	393.116118484403	1232.114116385335	41.980811570510	307.586219709718	1302.813653857388	118.978584163994	323.025286053940	1434.658076076211	89.522000569402	287.846164732015	853.996719308851	1100.073419905417	236.764115055964	783.484347482044	852.772077402561	272.340679610188	1256.982946465178	1143.839754392995	746.608834998760	1470.046602748601	1242.468390212543	658.388224779283	
125	9.550571428571	859.293452909131	994.472141017317	507.098725247053	1017.103625644535	1416.157811378100	303.833427070826	1139.792862986997	1343.976575323287	449.869212738426	1083.174851077967	1424.023955584426	631.184168539613	1024.348287816469	1476.810767091965	460.140020984117	1090.955313763937	923.006040928805	603.625930431090	1054.523493542736	939.597940719324	329.499554312842	1076.623031263823	708.940039551943	578.106942138683	967.195687544216	621.093844687069	642.783148927614	1019.103071258763	552.243474679397	560.526258838467	993.880053720406	466.105656866477	564.839276214411	1132.626295913801	762.334118187976	362.357317088905	1079.932148426424	630.889955812141	289.050645734747	1188.145622374817	577.004235221694	345.392035439115	1212.949052694642	511.668975931020	343.864191595767	1199.868259453241	438.283787064514	334.441159235924	1135.592827568645	304.434783214148	294.045628095614	1230.594478024814	211.516798059043	345.735612741048	947.877748029309	386.063474491875	573.254172819151	859.615478992841	298.049907187229	637.258458590621	878.645271355171	197.594588335675	573.261939571458	719.787965571624	45.666682950095	542.954516633547	891.066078859315	96.152026268486	581.631047140391	800.869879959626	37.500832774490	619.069593644328	1009.470126659705	40.903710255365	615.225194628790	1155.842153809677	37.350130527758	395.398796866241	1222.831515149280	40.012597617808	309.069793724619	1296.246531988626	114.123966220366	324.881311589306	1426.963361035270	80.356825773920	288.085230059912	853.540461108088	1099.983588837510	234.838651162084	781.163483937307	853.223521246598	271.113403896026	1258.201017646456	1144.322164661738	744.528983728791	1465.922927739229	1251.516651731610	655.290170283537	
126	9.561785714286	860.655551810128	992.862888095511	504.092358543529	1018.085688923987	1415.024717067454	301.548829824480	1140.304318396593	1343.183638261377	448.119107171220	1082.590305410897	1422.995504433395	629.236737195996	1024.466495879839	1475.760190904931	457.774095026908	1092.139659234819	921.553176653278	601.560762514697	1056.801135191821	938.581254803032	327.427704802789	1078.193594929875	707.342029399532	576.074416791606	968.520527278616	619.373177933921	640.240771402667	1020.985443024565	550.157125840857	558.450481386494	995.061627141857	462.896224607989	562.820263010402	1135.618508443803	761.205087857955	360.118105682420	1081.385834839920	629.547496747390	288.366933983689	1189.898628866622	575.805916042802	344.269918980664	1213.189033519069	509.289527353146	343.766397613843	1199.587662390268	435.565964963188	334.437669443251	1133.461843315811	302.664195540817	293.972540567636	1226.207036480078	208.358862836804	346.780489928798	946.903506263231	383.748030962525	571.406194589096	856.514811103948	298.195284807926	635.957862549384	872.873872204828	197.042699178179	572.528333995162	710.917123634880	47.562231984336	543.280943225480	882.762232150215	96.282201219349	581.656144269710	792.049466513500	38.301238100022	619.129620881172	1000.652091821612	40.300617090793	615.358928561207	1146.897418609102	37.077276993411	396.893898149438	1213.393594151603	38.409045124703	309.995337594649	1289.398262711422	109.736684719408	326.375817164680	1419.069989663854	71.819335575735	288.452580775923	854.025092785948	1099.382616656457	232.750700980766	780.096508389499	853.063334420158	269.363286082805	1258.695128375978	1144.217112753485	742.562384419811	1461.212187622945	1259.182918032357	652.465205582349	
127	9.573000000000	861.948423808312	991.471402144419	501.071277275065	1019.079130076876	1414.073686125754	299.254254861282	1140.826763439797	1342.611990701177	446.373166232974	1082.038711892828	1422.162141899751	627.332652544383	1024.651010156325	1474.939106974692	455.468882442692	1093.344948478244	920.316149732033	599.356168846710	1059.006319199847	937.945582651193	325.291309097474	1080.031396194065	705.999027495080	573.900941142636	970.287540147613	617.756770390560	637.570089419178	1023.503712465681	548.212749563523	556.306035364065	997.051871228716	459.642010570298	560.932398165495	1138.643892408667	760.528758262408	357.821145532576	1083.366006570577	628.861367725791	287.160524153043	1191.891525288270	575.075635946659	343.027618237477	1213.787788080085	507.482748151012	343.376610920823	1199.644947785546	433.385900899768	334.155121124762	1131.824841421503	301.528127936961	293.068597060620	1221.906853055742	205.730197476006	347.362227562926	946.506637042013	381.588930976619	569.647097080190	853.824753094510	298.738274486447	634.674762000310	867.478415279503	196.871032836450	571.898069576522	702.188463195349	50.294368767394	543.683574784819	874.753334167695	96.501499346770	581.787731000870	783.321838880370	39.532551414594	619.242677317933	991.831820471294	39.688558026669	615.469551102273	1137.809644263147	37.060180578047	397.666388008935	1204.067356898702	37.204348119207	310.414475559998	1282.369994997813	106.027737405071	327.470290068559	1411.121401234749	64.422334535435	288.884250152789	855.481001977965	1098.305702217021	230.490740423736	780.347579998998	852.305635219552	267.090664220011	1258.429256961216	1143.502091775200	740.712371522670	1456.018316876908	1265.421091380656	649.911326244019	
